  <svg
    width="24"
    height="24"
    viewBox="0 0 24 24"
    fill="none"
    xmlns="http://www.w3.org/2000/svg"
  >
    <path
      id="Vector"
      d="M12 0C9.62663 0 7.30655 0.703788 5.33316 2.02236C3.35977 3.34094 1.8217 5.21508 0.913451 7.4078C0.00519943 9.60051 -0.232441 12.0133 0.230582 14.3411C0.693605 16.6689 1.83649 18.807 3.51472 20.4853C5.19295 22.1635 7.33115 23.3064 9.65892 23.7694C11.9867 24.2324 14.3995 23.9948 16.5922 23.0865C18.7849 22.1783 20.6591 20.6402 21.9776 18.6668C23.2962 16.6934 24 14.3734 24 12C24 8.8174 22.7357 5.76515 20.4853 3.51472C18.2348 1.26428 15.1826 0 12 0ZM11.812 19H11.748C11.5279 18.9974 11.3105 18.9514 11.1081 18.8648C10.9058 18.7781 10.7225 18.6525 10.5687 18.495C10.2582 18.1769 10.0867 17.7485 10.092 17.304C10.0973 16.8595 10.279 16.4353 10.597 16.1247C10.9151 15.8142 11.3435 15.6427 11.788 15.648H11.844C12.288 15.6522 12.7121 15.8327 13.023 16.1496C13.3339 16.4665 13.5062 16.894 13.502 17.338C13.4978 17.782 13.3173 18.2061 13.0004 18.517C12.6834 18.8279 12.256 19.0002 11.812 18.996V19ZM15.924 10.836C15.5178 11.2991 15.0571 11.7114 14.552 12.064L13.848 12.548C13.5332 12.7585 13.2881 13.0578 13.144 13.408C13.0581 13.6378 13.0213 13.8831 13.036 14.128V14.24H10.356V14.012C10.388 13.08 10.412 12.532 10.8 12.08C11.4048 11.4737 12.0757 10.937 12.8 10.48C12.9854 10.3476 13.1476 10.1854 13.28 10C13.5164 9.72083 13.6566 9.37302 13.68 9.008C13.6818 8.59728 13.5529 8.19664 13.312 7.864C13.076 7.532 12.632 7.368 11.984 7.368C11.7255 7.34121 11.4646 7.38466 11.2288 7.49378C10.9929 7.6029 10.7909 7.77364 10.644 7.988C10.3857 8.38447 10.2469 8.84683 10.244 9.32V9.436H7.484V9.316C7.56 7.6 8.164 6.4 9.28 5.68C10.063 5.20746 10.9659 4.97131 11.88 5C13.0715 4.95631 14.2458 5.29403 15.232 5.964C15.6807 6.2943 16.0398 6.73149 16.2766 7.23585C16.5134 7.74021 16.6205 8.29576 16.588 8.852C16.5866 9.56766 16.3536 10.2636 15.924 10.836Z"
      fill="white"
      fill-opacity="0.8"
    />
  </svg>

