<svg width="30" height="26" viewBox="0 0 30 26" fill="none" xmlns="http://www.w3.org/2000/svg">
<path d="M20.1582 24.0949C20.8956 23.634 21.1415 22.6815 20.7113 21.9133C20.2504 21.1451 19.2671 20.93 18.4989 21.3909C16.7475 22.4664 14.658 22.9887 12.415 22.7737C7.68299 22.3127 3.93429 18.4104 3.59629 13.6784C3.19684 7.93247 7.8059 3.13905 13.4597 3.2005C18.714 3.26196 23.0773 7.56375 23.1694 12.8181C23.1694 12.8488 23.1694 12.8795 23.1694 12.8795H20.8342C20.1582 12.8795 19.728 13.617 20.0967 14.2008L24.0298 20.4999C24.3678 21.0529 25.1667 21.0529 25.5047 20.4999L29.4685 14.2315C29.8372 13.6477 29.407 12.9103 28.731 12.9103H26.3651C26.3036 5.44358 19.9738 -0.517474 12.3842 0.0356131C6.05445 0.527246 0.923032 5.65867 0.431398 12.0192C-0.121689 19.6088 5.90082 26 13.3982 26C15.8564 26 18.1917 25.2933 20.1582 24.0949Z" fill="white"/>
</svg>
